<mxfile host="app.diagrams.net" modified="2024-03-24T11:23:56.916Z" agent="Mozilla/5.0 (Macintosh; Intel Mac OS X 10_15_7) AppleWebKit/537.36 (KHTML, like Gecko) Chrome/123.0.0.0 Safari/537.36" etag="_mNV8zWN7UlwoMc00Yg6" version="24.0.7" type="device">
  <diagram name="페이지-1" id="Fwa0hKC3Dk2IB32W_oC0">
    <mxGraphModel dx="722" dy="598" grid="1" gridSize="10" guides="1" tooltips="1" connect="1" arrows="1" fold="1" page="1" pageScale="1" pageWidth="827" pageHeight="1169" math="0" shadow="0">
      <root>
        <mxCell id="0" />
        <mxCell id="1" parent="0" />
        <mxCell id="ueLqYp0LU76ddZEogOVL-2" style="edgeStyle=orthogonalEdgeStyle;rounded=0;orthogonalLoop=1;jettySize=auto;html=1;" edge="1" parent="1" source="ueLqYp0LU76ddZEogOVL-1">
          <mxGeometry relative="1" as="geometry">
            <mxPoint x="240" y="279" as="targetPoint" />
          </mxGeometry>
        </mxCell>
        <mxCell id="ueLqYp0LU76ddZEogOVL-1" value="" style="sketch=0;outlineConnect=0;fontColor=#232F3E;gradientColor=none;fillColor=#232F3D;strokeColor=none;dashed=0;verticalLabelPosition=bottom;verticalAlign=top;align=center;html=1;fontSize=12;fontStyle=0;aspect=fixed;pointerEvents=1;shape=mxgraph.aws4.user;" vertex="1" parent="1">
          <mxGeometry x="60" y="240" width="78" height="78" as="geometry" />
        </mxCell>
        <mxCell id="ueLqYp0LU76ddZEogOVL-4" style="edgeStyle=orthogonalEdgeStyle;rounded=0;orthogonalLoop=1;jettySize=auto;html=1;" edge="1" parent="1" source="ueLqYp0LU76ddZEogOVL-3" target="ueLqYp0LU76ddZEogOVL-5">
          <mxGeometry relative="1" as="geometry">
            <mxPoint x="460" y="280" as="targetPoint" />
          </mxGeometry>
        </mxCell>
        <mxCell id="ueLqYp0LU76ddZEogOVL-3" value="Web Client Server" style="rounded=1;whiteSpace=wrap;html=1;" vertex="1" parent="1">
          <mxGeometry x="240" y="240" width="140" height="80" as="geometry" />
        </mxCell>
        <mxCell id="ueLqYp0LU76ddZEogOVL-6" style="edgeStyle=orthogonalEdgeStyle;rounded=0;orthogonalLoop=1;jettySize=auto;html=1;" edge="1" parent="1" source="ueLqYp0LU76ddZEogOVL-5">
          <mxGeometry relative="1" as="geometry">
            <mxPoint x="680" y="281" as="targetPoint" />
          </mxGeometry>
        </mxCell>
        <mxCell id="ueLqYp0LU76ddZEogOVL-5" value="" style="shape=image;html=1;verticalAlign=top;verticalLabelPosition=bottom;labelBackgroundColor=#ffffff;imageAspect=0;aspect=fixed;image=https://cdn1.iconfinder.com/data/icons/unicons-line-vol-5/24/react-128.png" vertex="1" parent="1">
          <mxGeometry x="460" y="216" width="130" height="130" as="geometry" />
        </mxCell>
      </root>
    </mxGraphModel>
  </diagram>
</mxfile>
